<svg width="1200" height="630" viewBox="0 0 1200 630" fill="none" xmlns="http://www.w3.org/2000/svg">
  <defs>
    <linearGradient id="bg" x1="0%" y1="0%" x2="100%" y2="100%">
      <stop offset="0%" style="stop-color:#0f172a"/>
      <stop offset="100%" style="stop-color:#1e293b"/>
    </linearGradient>
    <linearGradient id="accent" x1="0%" y1="0%" x2="100%" y2="0%">
      <stop offset="0%" style="stop-color:#16b777"/>
      <stop offset="100%" style="stop-color:#10b981"/>
    </linearGradient>
  </defs>
  
  <rect width="1200" height="630" fill="url(#bg)"/>
  
  <rect x="80" y="265" width="8" height="100" rx="4" fill="url(#accent)"/>
  
  <text x="110" y="340" font-family="system-ui, -apple-system, sans-serif" font-size="72" font-weight="700" fill="#ffffff">
AOG Notes
  </text>
  
  <text x="110" y="400" font-family="system-ui, -apple-system, sans-serif" font-size="28" fill="#94a3b8">
    A modern Markdown note-taking framework
  </text>
  
  <g transform="translate(110, 460)">
    <rect width="120" height="36" rx="18" fill="#16b77720" stroke="#16b777" stroke-width="1"/>
    <text x="60" y="24" font-family="system-ui, sans-serif" font-size="14" fill="#16b777" text-anchor="middle">Next.js 16</text>
  </g>
  
  <g transform="translate(250, 460)">
    <rect width="120" height="36" rx="18" fill="#3b82f620" stroke="#3b82f6" stroke-width="1"/>
    <text x="60" y="24" font-family="system-ui, sans-serif" font-size="14" fill="#3b82f6" text-anchor="middle">TypeScript</text>
  </g>
  
  <g transform="translate(390, 460)">
    <rect width="120" height="36" rx="18" fill="#38bdf820" stroke="#38bdf8" stroke-width="1"/>
    <text x="60" y="24" font-family="system-ui, sans-serif" font-size="14" fill="#38bdf8" text-anchor="middle">Tailwind CSS</text>
  </g>
  
  <g transform="translate(900, 200)">
    <rect x="0" y="0" width="220" height="280" rx="8" fill="#1e293b" stroke="#334155" stroke-width="1"/>
    <rect x="0" y="0" width="220" height="40" rx="8" fill="#334155"/>
    <circle cx="20" cy="20" r="6" fill="#ef4444"/>
    <circle cx="40" cy="20" r="6" fill="#eab308"/>
    <circle cx="60" cy="20" r="6" fill="#22c55e"/>
    <rect x="20" y="60" width="140" height="12" rx="2" fill="#16b777"/>
    <rect x="20" y="90" width="180" height="8" rx="2" fill="#475569"/>
    <rect x="20" y="110" width="160" height="8" rx="2" fill="#475569"/>
    <rect x="20" y="130" width="170" height="8" rx="2" fill="#475569"/>
    <rect x="20" y="160" width="100" height="12" rx="2" fill="#16b777" opacity="0.6"/>
    <rect x="20" y="190" width="180" height="8" rx="2" fill="#475569"/>
    <rect x="20" y="210" width="150" height="8" rx="2" fill="#475569"/>
    <rect x="20" y="240" width="80" height="20" rx="4" fill="#16b77730"/>
  </g>
</svg>